<svg width="38" height="38" viewBox="0 0 38 38" fill="none" xmlns="http://www.w3.org/2000/svg">
<rect width="38" height="38" rx="6" fill="#FA9D2A"/>
<g clip-path="url(#clip0_588_54575)">
<path d="M18.1736 28.912V26.4156H17.3475V28.912H15.6954V26.4156H11.5906L12.0036 23.9555H12.8949C13.6252 23.9555 14.0432 23.2525 14.0432 22.5454V15.2023C14.0432 14.5142 13.6426 14.0425 12.9156 14.0425H11.5649V11.5642H15.6954V9.08594H17.3475V11.5642H18.1736V9.08594H19.8258V11.608C23.3904 11.7286 24.8022 13.0792 25.2069 14.6025C25.6861 16.4034 24.499 17.9152 23.4779 18.2836C24.7179 18.5992 26.4345 19.5153 26.4345 21.6292C26.4345 24.5065 24.214 26.4338 19.8258 26.4338V28.912H18.1736ZM17.3475 19.8201V23.9555C20.6263 23.9555 22.8724 23.6457 22.8724 21.8771C22.8724 19.9804 20.4454 19.8201 17.3475 19.8201ZM17.3475 18.1729C19.174 18.1729 21.9555 18.044 21.9555 16.1077C21.9555 14.4555 20.2389 14.0425 17.3475 14.0425V18.1729Z" fill="white"/>
</g>
<defs>
<clipPath id="clip0_588_54575">
<rect width="19.8261" height="19.8261" fill="white" transform="translate(9.08691 9.08594)"/>
</clipPath>
</defs>
</svg>
