<svg width="32" height="32" viewBox="0 0 32 32" fill="none" xmlns="http://www.w3.org/2000/svg">
<g id="carbon:security">
<g id="Group 1000004176">
<path id="Vector" d="M14.5716 16.5057L12.3516 14.2857L11.1431 15.4943L14.5716 18.9229L21.4288 12.0657L20.2202 10.8571L14.5716 16.5057Z" fill="#7851BD"/>
<path id="Vector_2" d="M16.2857 28L10.992 25.1774C9.48286 24.3746 8.22083 23.1759 7.34137 21.71C6.4619 20.2442 5.99819 18.5666 6.00001 16.8571V5.71429C6.00046 5.25977 6.18122 4.824 6.50261 4.5026C6.824 4.18121 7.25977 4.00045 7.71429 4H24.8571C25.3117 4.00045 25.7474 4.18121 26.0688 4.5026C26.3902 4.824 26.571 5.25977 26.5714 5.71429V16.8571C26.5732 18.5666 26.1095 20.2442 25.2301 21.71C24.3506 23.1759 23.0886 24.3746 21.5794 25.1774L16.2857 28ZM7.71429 5.71429V16.8571C7.71287 18.2558 8.09238 19.6285 8.81209 20.8278C9.5318 22.0271 10.5645 23.0078 11.7994 23.6646L16.2857 26.0569L20.772 23.6654C22.007 23.0086 23.0399 22.0278 23.7596 20.8283C24.4793 19.6288 24.8587 18.256 24.8571 16.8571V5.71429H7.71429Z" fill="#7851BD"/>
</g>
</g>
</svg>
