<svg width="20" height="21" viewBox="0 0 20 21"  xmlns="http://www.w3.org/2000/svg"   className="fill-[#233047] hover:fill-white">
<path d="M3.77637 4.2766C3.77637 3.61355 4.03976 2.97767 4.5086 2.50883C4.97744 2.03999 5.61333 1.7766 6.27637 1.7766C6.93941 1.7766 7.57529 2.03999 8.04413 2.50883C8.51298 2.97767 8.77637 3.61355 8.77637 4.2766C8.77637 4.93964 8.51298 5.57552 8.04413 6.04436C7.57529 6.5132 6.93941 6.7766 6.27637 6.7766C5.61333 6.7766 4.97744 6.5132 4.5086 6.04436C4.03976 5.57552 3.77637 4.93964 3.77637 4.2766ZM12.2501 6.2566L12.3026 6.2966C12.833 6.68973 13.4973 6.85712 14.1507 6.76223C14.804 6.66735 15.3933 6.3179 15.7899 5.79014C16.1865 5.26238 16.3583 4.59916 16.2677 3.94522C16.1771 3.29128 15.8316 2.69971 15.3065 2.29961C14.7813 1.89951 14.1193 1.72337 13.4647 1.80962C12.8102 1.89587 12.2164 2.23751 11.8128 2.75999C11.4093 3.28247 11.2287 3.94336 11.3107 4.59844C11.3926 5.25352 11.7303 5.8496 12.2501 6.2566ZM7.86137 8.0266C8.01837 7.7293 8.23372 7.46673 8.49455 7.25458C8.75537 7.04244 9.05631 6.88509 9.37935 6.79193C9.70239 6.69878 10.0409 6.67174 10.3746 6.71244C10.7084 6.75313 11.0305 6.86072 11.3217 7.02878C11.6129 7.19683 11.8672 7.42189 12.0694 7.6905C12.2716 7.9591 12.4175 8.26573 12.4985 8.59205C12.5794 8.91836 12.5937 9.25765 12.5405 9.58962C12.4873 9.92159 12.3677 10.2394 12.1889 10.5241C11.8448 11.0718 11.3018 11.4647 10.674 11.6205C10.0463 11.7762 9.38259 11.6826 8.8224 11.3593C8.26221 11.036 7.84912 10.5082 7.66991 9.88674C7.4907 9.26527 7.55933 8.59853 7.86137 8.0266ZM3.15137 8.0266H6.48887C6.26671 8.66104 6.2184 9.34339 6.34897 10.0028C6.47953 10.6622 6.78421 11.2747 7.23137 11.7766H6.90137C6.25691 11.7765 5.62818 11.9756 5.10122 12.3466C4.57427 12.7176 4.17484 13.2424 3.95762 13.8491C3.53803 13.6805 3.14518 13.4519 2.79137 13.1703C1.85137 12.4141 1.27637 11.2966 1.27637 9.9016C1.27637 9.40431 1.47391 8.9274 1.82554 8.57577C2.17717 8.22414 2.65409 8.0266 3.15137 8.0266ZM13.1514 11.7766C13.7957 11.7766 14.4242 11.9757 14.9509 12.3467C15.4777 12.7177 15.8769 13.2425 16.0939 13.8491C16.5189 13.6753 16.9126 13.4491 17.2614 13.1703C18.2014 12.4141 18.7764 11.2966 18.7764 9.9016C18.7764 9.40431 18.5788 8.9274 18.2272 8.57577C17.8756 8.22414 17.3986 8.0266 16.9014 8.0266H13.5639C13.7014 8.41785 13.7764 8.8391 13.7764 9.2766C13.7775 10.1992 13.4374 11.0897 12.8214 11.7766H13.1514ZM14.8851 14.1866C14.9764 14.4066 15.0264 14.6491 15.0264 14.9016C15.0264 16.2966 14.4526 17.4141 13.5114 18.1703C12.5851 18.9141 11.3426 19.2766 10.0264 19.2766C8.71012 19.2766 7.46762 18.9141 6.54137 18.1703C5.60137 17.4141 5.02637 16.2966 5.02637 14.9016C5.02571 14.6552 5.07376 14.4111 5.16775 14.1833C5.26174 13.9555 5.39983 13.7485 5.57407 13.5743C5.74831 13.4001 5.95527 13.262 6.18306 13.168C6.41084 13.074 6.65495 13.0259 6.90137 13.0266H13.1514C13.5227 13.0265 13.8858 13.1367 14.1945 13.3432C14.5031 13.5498 14.7435 13.8433 14.8851 14.1866Z"/>
</svg>
