<svg
                  width="20"
                  height="21"
                  viewBox="0 0 20 21"
                  fill="none"
                  xmlns="http://www.w3.org/2000/svg"
            className="fill-[#233047] group-hover:fill-white"
                >
                  <path
                    d="M2.22222 20.5C1.61111 20.5 1.08778 20.2826 0.652222 19.8478C0.217407 19.4122 0 18.8889 0 18.2778V2.72222C0 2.11111 0.217407 1.58778 0.652222 1.15222C1.08778 0.717407 1.61111 0.5 2.22222 0.5H6.66667C7.27778 0.5 7.80111 0.717407 8.23667 1.15222C8.67148 1.58778 8.88889 2.11111 8.88889 2.72222V18.2778C8.88889 18.8889 8.67148 19.4122 8.23667 19.8478C7.80111 20.2826 7.27778 20.5 6.66667 20.5H2.22222ZM13.3333 8.27778C12.7222 8.27778 12.1993 8.06 11.7644 7.62444C11.3289 7.18963 11.1111 6.66667 11.1111 6.05556V2.72222C11.1111 2.11111 11.3289 1.58778 11.7644 1.15222C12.1993 0.717407 12.7222 0.5 13.3333 0.5H17.7778C18.3889 0.5 18.9122 0.717407 19.3478 1.15222C19.7826 1.58778 20 2.11111 20 2.72222V6.05556C20 6.66667 19.7826 7.18963 19.3478 7.62444C18.9122 8.06 18.3889 8.27778 17.7778 8.27778H13.3333ZM13.3333 20.5C12.7222 20.5 12.1993 20.2826 11.7644 19.8478C11.3289 19.4122 11.1111 18.8889 11.1111 18.2778V12.7222C11.1111 12.1111 11.3289 11.5878 11.7644 11.1522C12.1993 10.7174 12.7222 10.5 13.3333 10.5H17.7778C18.3889 10.5 18.9122 10.7174 19.3478 11.1522C19.7826 11.5878 20 12.1111 20 12.7222V18.2778C20 18.8889 19.7826 19.4122 19.3478 19.8478C18.9122 20.2826 18.3889 20.5 17.7778 20.5H13.3333Z"
               />
                </svg>