<svg width="14" height="14" viewBox="0 0 14 14" fill="none" xmlns="http://www.w3.org/2000/svg">
<g clip-path="url(#clip0_588_54585)">
<path d="M5.25 1.75C5.25 2.7165 6.0335 3.5 7 3.5C7.9665 3.5 8.75 2.7165 8.75 1.75C8.75 0.783502 7.9665 -3.42479e-08 7 -7.64949e-08C6.0335 -1.18742e-07 5.25 0.783502 5.25 1.75Z" fill="#98A6AD"/>
<path d="M5.25 7C5.25 7.9665 6.0335 8.75 7 8.75C7.9665 8.75 8.75 7.9665 8.75 7C8.75 6.0335 7.9665 5.25 7 5.25C6.0335 5.25 5.25 6.0335 5.25 7Z" fill="#98A6AD"/>
<path d="M5.25 12.25C5.25 13.2165 6.0335 14 7 14C7.9665 14 8.75 13.2165 8.75 12.25C8.75 11.2835 7.9665 10.5 7 10.5C6.0335 10.5 5.25 11.2835 5.25 12.25Z" fill="#98A6AD"/>
</g>
<defs>
<clipPath id="clip0_588_54585">
<rect width="14" height="14" fill="white" transform="translate(14) rotate(90)"/>
</clipPath>
</defs>
</svg>
