<svg width="241" height="79" viewBox="0 0 241 79" fill="none" xmlns="http://www.w3.org/2000/svg">
<path d="M40.2565 27.9977C21.8261 8.3124 8.11027 32.1043 1 26.539V79H241V32.5004C230.141 33.4683 220.528 65.2565 198.739 44.0004C183.056 28.7014 173.677 33.91 163.056 32.9696C147.766 31.6159 138.655 -11.8676 119.957 4.00038C96.4841 23.9191 103.602 22.7313 79.6187 40.3206C71.5355 46.2488 59.8848 48.9623 40.2565 27.9977Z" fill="url(#paint0_linear_588_55686)"/>
<path d="M1 27.718C13.1053 27.5002 21.8261 9.2501 40.2565 29.1961C59.8848 50.4383 71.5355 47.6889 79.6187 41.6822C103.261 24.1136 94.3972 25.6827 117.87 5.5002C136.568 -10.5779 147.766 32.8622 163.056 34.2339C173.677 35.1867 183.578 29.4984 199.261 45C221.05 66.5376 229.947 34.0004 241 34.0004" stroke="#627EEA" stroke-width="3"/>
<defs>
<linearGradient id="paint0_linear_588_55686" x1="122" y1="66.5" x2="121" y2="13.0004" gradientUnits="userSpaceOnUse">
<stop stop-color="#627EEA" stop-opacity="0"/>
<stop offset="1" stop-color="#627EEA" stop-opacity="0.2"/>
</linearGradient>
</defs>
</svg>
