<svg width="38" height="39" viewBox="0 0 38 39" fill="none" xmlns="http://www.w3.org/2000/svg">
<rect y="0.866089" width="38" height="38" rx="6" fill="#345D9D"/>
<g clip-path="url(#clip0_588_54625)">
<path d="M19.0002 28.7837C23.9253 28.7837 27.9179 24.7912 27.9179 19.8661C27.9179 14.941 23.9253 10.9484 19.0002 10.9484C14.0751 10.9484 10.0825 14.941 10.0825 19.8661C10.0825 24.7912 14.0751 28.7837 19.0002 28.7837Z" fill="#345D9D"/>
<path d="M19 9.86609C17.0222 9.86609 15.0888 10.4526 13.4443 11.5514C11.7998 12.6502 10.5181 14.212 9.76121 16.0393C9.00433 17.8665 8.8063 19.8772 9.19215 21.817C9.578 23.7568 10.5304 25.5386 11.9289 26.9372C13.3275 28.3357 15.1093 29.2881 17.0491 29.6739C18.9889 30.0598 20.9996 29.8618 22.8268 29.1049C24.6541 28.348 26.2159 27.0663 27.3147 25.4218C28.4135 23.7773 29 21.8439 29 19.8661C29.0038 18.5567 28.7497 17.2593 28.2521 16.0482C27.7546 14.837 27.0233 13.7356 26.1001 12.807C25.1769 11.8785 24.0799 11.1408 22.8716 10.6362C21.6634 10.1316 20.3675 9.8699 19.0581 9.86609H19ZM19.1695 20.2051L18.1283 23.716H23.6973C23.7342 23.7147 23.771 23.7207 23.8056 23.7336C23.8402 23.7465 23.8718 23.7661 23.8988 23.7913C23.9258 23.8165 23.9476 23.8468 23.9629 23.8804C23.9781 23.914 23.9866 23.9503 23.9879 23.9872V24.0792L23.5036 25.7499C23.4823 25.8289 23.4347 25.8983 23.3687 25.9467C23.3027 25.9951 23.2222 26.0196 23.1404 26.0162H14.6174L16.046 21.1494L14.4479 21.6336L14.8111 20.5198L16.4092 20.0356L18.4189 13.2075C18.441 13.1289 18.4888 13.06 18.5546 13.0118C18.6204 12.9635 18.7005 12.9386 18.7821 12.9411H20.9371C20.9739 12.9399 21.0107 12.9458 21.0453 12.9588C21.0799 12.9717 21.1116 12.9913 21.1385 13.0165C21.1655 13.0417 21.1873 13.072 21.2026 13.1056C21.2178 13.1392 21.2264 13.1754 21.2276 13.2123V13.3043L19.5327 19.0671L21.1308 18.5828L20.7918 19.745L19.1695 20.2051Z" fill="white"/>
</g>
<defs>
<clipPath id="clip0_588_54625">
<rect width="20" height="20" fill="white" transform="translate(9 9.86609)"/>
</clipPath>
</defs>
</svg>
