<svg width="38" height="37" viewBox="0 0 38 37" fill="none" xmlns="http://www.w3.org/2000/svg">
<rect width="38" height="37" rx="6" fill="#9B51E0"/>
<path d="M19 9C13.4772 9 9 13.4772 9 19C9 24.5228 13.4772 29 19 29C24.5228 29 29 24.5228 29 19C28.9937 13.4798 24.5202 9.00632 19 9ZM23.9066 17.9001C23.5347 18.2286 23.1053 18.4854 22.6399 18.6571C22.3105 18.7637 22.0093 18.9427 21.7582 19.1811C21.4249 19.9748 21.6295 20.8928 22.2689 21.4698C22.2907 21.4916 22.3112 21.5149 22.3302 21.5395C23.1345 22.5702 23.0528 24.0365 22.139 24.9715C21.1273 25.9814 19.4887 25.9814 18.4769 24.9715C17.8366 24.2031 17.6274 23.1635 17.9203 22.2072C17.9912 21.6546 17.8022 21.1001 17.4083 20.706C17.0174 20.3293 16.4755 20.1525 15.9378 20.226C14.9815 20.5185 13.9421 20.3086 13.1742 19.6681C12.163 18.6582 12.1621 17.0198 13.172 16.0088C13.1726 16.008 13.1735 16.0073 13.1742 16.0066C14.1086 15.0922 15.5757 15.0105 16.6061 15.8155C17.3274 16.5283 18.396 16.7683 18.9638 16.3862C19.2031 16.1357 19.3823 15.8342 19.4883 15.5044C19.6601 15.0395 19.9164 14.6104 20.2445 14.239C21.2557 13.2278 22.8949 13.2278 23.9062 14.2388C24.9176 15.25 24.9176 16.8893 23.9066 17.9005V17.9001Z" fill="white"/>
<path d="M21.2542 15.2479C21.0593 15.4982 20.9052 15.7777 20.798 16.076C20.6024 16.6644 20.2414 17.1841 19.7586 17.573C18.3971 18.3041 16.7136 18.0213 15.6656 16.8857C15.2027 16.5752 14.5859 16.6293 14.1841 17.0156C13.7307 17.4683 13.7303 18.2031 14.183 18.6565C14.1835 18.6568 14.1837 18.6572 14.1841 18.6574C14.4575 18.9297 14.8468 18.9729 15.6782 18.8207C15.8467 18.7902 16.0176 18.7747 16.1889 18.7747C17.0219 18.7882 17.8186 19.1174 18.4182 19.6954C19.1448 20.422 19.4818 21.4513 19.3252 22.4669C19.1705 23.2963 19.2137 23.687 19.4872 23.961C19.9409 24.4137 20.6754 24.4137 21.1291 23.961C21.521 23.5422 21.5598 22.9042 21.2213 22.4412C20.1144 21.3912 19.848 19.7297 20.5712 18.3862C20.9602 17.9036 21.4798 17.5431 22.0682 17.3482C22.367 17.2405 22.6467 17.0855 22.8967 16.8894C23.3499 16.4359 23.3499 15.7009 22.8965 15.2477C22.4429 14.7945 21.7081 14.7948 21.2549 15.2482L21.2542 15.2479Z" fill="white"/>
</svg>
