<svg width="20" height="20" viewBox="0 0 20 20" fill="none" xmlns="http://www.w3.org/2000/svg">
<path fill-rule="evenodd" clip-rule="evenodd" d="M9.16699 3.33335C5.94533 3.33335 3.33366 5.94503 3.33366 9.16669C3.33366 12.3883 5.94533 15 9.16699 15C12.3887 15 15.0003 12.3883 15.0003 9.16669C15.0003 5.94503 12.3887 3.33335 9.16699 3.33335ZM1.66699 9.16669C1.66699 5.02455 5.02486 1.66669 9.16699 1.66669C13.3091 1.66669 16.667 5.02455 16.667 9.16669C16.667 13.3088 13.3091 16.6667 9.16699 16.6667C5.02486 16.6667 1.66699 13.3088 1.66699 9.16669Z" fill="#637381"/>
<path fill-rule="evenodd" clip-rule="evenodd" d="M13.2861 13.2858C13.6115 12.9603 14.1391 12.9603 14.4646 13.2858L18.0896 16.9108C18.415 17.2362 18.415 17.7638 18.0896 18.0893C17.7641 18.4147 17.2365 18.4147 16.9111 18.0893L13.2861 14.4643C12.9606 14.1388 12.9606 13.6112 13.2861 13.2858Z" fill="#637381"/>
</svg>
