<svg width="20" height="21" viewBox="0 0 20 21" fill="none" xmlns="http://www.w3.org/2000/svg" className="fill-[#233047] group-hover:fill-white">
<path d="M11.5626 18.8333H8.43762C8.22928 18.8333 8.04873 18.7639 7.89595 18.625C7.74317 18.4861 7.6529 18.3125 7.62512 18.1042L7.37512 16.1667C7.19456 16.0972 7.02429 16.0139 6.86429 15.9167C6.70429 15.8195 6.54817 15.7153 6.39595 15.6042L4.58345 16.3542C4.38901 16.4236 4.19456 16.4306 4.00012 16.375C3.80567 16.3194 3.6529 16.2014 3.54178 16.0208L2.00012 13.3333C1.88901 13.1528 1.85429 12.9583 1.89595 12.75C1.93762 12.5417 2.04179 12.375 2.20845 12.25L3.77095 11.0625C3.75706 10.9653 3.75012 10.8714 3.75012 10.7808V10.2192C3.75012 10.1286 3.75706 10.0347 3.77095 9.93751L2.20845 8.75001C2.04179 8.62501 1.93762 8.45834 1.89595 8.25001C1.85429 8.04167 1.88901 7.84723 2.00012 7.66667L3.54178 4.97917C3.63901 4.78473 3.78817 4.66306 3.98929 4.61417C4.1904 4.56528 4.38845 4.57584 4.58345 4.64584L6.39595 5.39584C6.54873 5.28473 6.70845 5.18056 6.87512 5.08334C7.04178 4.98612 7.20845 4.90278 7.37512 4.83334L7.62512 2.89584C7.6529 2.68751 7.74317 2.51389 7.89595 2.37501C8.04873 2.23612 8.22928 2.16667 8.43762 2.16667H11.5626C11.771 2.16667 11.9515 2.23612 12.1043 2.37501C12.2571 2.51389 12.3473 2.68751 12.3751 2.89584L12.6251 4.83334C12.8057 4.90278 12.976 4.98612 13.136 5.08334C13.296 5.18056 13.4521 5.28473 13.6043 5.39584L15.4168 4.64584C15.6112 4.57639 15.8057 4.56945 16.0001 4.62501C16.1946 4.68056 16.3473 4.79862 16.4585 4.97917L18.0001 7.66667C18.1112 7.84723 18.146 8.04167 18.1043 8.25001C18.0626 8.45834 17.9585 8.62501 17.7918 8.75001L16.2293 9.93751C16.2432 10.0347 16.2501 10.1286 16.2501 10.2192V10.7808C16.2501 10.8714 16.2362 10.9653 16.2085 11.0625L17.771 12.25C17.9376 12.375 18.0418 12.5417 18.0835 12.75C18.1251 12.9583 18.0904 13.1528 17.9793 13.3333L16.4376 16C16.3265 16.1806 16.1701 16.3022 15.9685 16.365C15.7668 16.4278 15.569 16.4242 15.3751 16.3542L13.6043 15.6042C13.4515 15.7153 13.2918 15.8195 13.1251 15.9167C12.9585 16.0139 12.7918 16.0972 12.6251 16.1667L12.3751 18.1042C12.3473 18.3125 12.2571 18.4861 12.1043 18.625C11.9515 18.7639 11.771 18.8333 11.5626 18.8333ZM10.0418 13.4167C10.8473 13.4167 11.5348 13.132 12.1043 12.5625C12.6737 11.9931 12.9585 11.3056 12.9585 10.5C12.9585 9.69445 12.6737 9.00695 12.1043 8.43751C11.5348 7.86806 10.8473 7.58334 10.0418 7.58334C9.22234 7.58334 8.53123 7.86806 7.96845 8.43751C7.40567 9.00695 7.12456 9.69445 7.12512 10.5C7.12512 11.3056 7.40623 11.9931 7.96845 12.5625C8.53067 13.132 9.22179 13.4167 10.0418 13.4167Z" />
</svg>
