<svg width="42" height="42" viewBox="0 0 42 42" fill="none" xmlns="http://www.w3.org/2000/svg">
<rect width="42" height="42" rx="5" fill="#ECE8F3"/>
<path fill-rule="evenodd" clip-rule="evenodd" d="M28 18.9H22.6618L25.844 11.4758C25.8896 11.3693 25.9081 11.2531 25.8978 11.1377C25.8875 11.0222 25.8487 10.9112 25.7848 10.8144C25.721 10.7177 25.6341 10.6383 25.532 10.5834C25.43 10.5286 25.3159 10.4999 25.2 10.5H18.2C18.0629 10.4999 17.9288 10.54 17.8143 10.6154C17.6998 10.6908 17.61 10.7982 17.556 10.9242L13.356 20.7242C13.3103 20.8307 13.2918 20.9469 13.3021 21.0623C13.3124 21.1778 13.3513 21.2888 13.4151 21.3856C13.4789 21.4823 13.5658 21.5617 13.6679 21.6166C13.77 21.6714 13.8841 21.7001 14 21.7H17.4636L13.3504 31.9396C13.0704 32.6354 13.9342 33.2248 14.4802 32.7096L21.5138 26.0694L28.455 20.132C28.5637 20.039 28.6414 19.9149 28.6774 19.7764C28.7135 19.6379 28.7062 19.4917 28.6567 19.3575C28.6071 19.2233 28.5176 19.1074 28.4001 19.0256C28.2827 18.9438 28.1431 18.9 28 18.9ZM21.6006 20.3H26.1044L20.5772 25.0292L15.8382 29.5022L19.1492 21.2604C19.1917 21.1542 19.2076 21.0392 19.1954 20.9254C19.1832 20.8116 19.1433 20.7026 19.0792 20.6078C19.0151 20.513 18.9288 20.4354 18.8277 20.3818C18.7266 20.3281 18.614 20.3 18.4996 20.3H15.0612L18.662 11.9H24.1388L20.9566 19.3242C20.9109 19.4307 20.8924 19.5469 20.9027 19.6623C20.913 19.7778 20.9519 19.8888 21.0157 19.9856C21.0795 20.0823 21.1664 20.1617 21.2685 20.2166C21.3706 20.2714 21.4847 20.3001 21.6006 20.3Z" fill="#4E4BCF"/>
</svg>
