<svg width="42" height="42" viewBox="0 0 42 42" fill="none" xmlns="http://www.w3.org/2000/svg">
<rect width="42" height="42" rx="5" fill="#4E4BCF" fill-opacity="0.1"/>
<path fill-rule="evenodd" clip-rule="evenodd" d="M28.7995 17.998H23.0636L26.4829 10.0453C26.532 9.93116 26.5518 9.8067 26.5407 9.68304C26.5297 9.55939 26.4879 9.44042 26.4193 9.3368C26.3507 9.23319 26.2574 9.14818 26.1477 9.08939C26.0381 9.03061 25.9154 8.99989 25.7909 9H18.2694C18.1221 8.99987 17.978 9.04286 17.855 9.12364C17.732 9.20442 17.6355 9.31943 17.5774 9.4544L13.0645 19.952C13.0155 20.0661 12.9956 20.1906 13.0067 20.3143C13.0178 20.4379 13.0595 20.5569 13.1281 20.6605C13.1967 20.7641 13.29 20.8491 13.3997 20.9079C13.5094 20.9667 13.632 20.9974 13.7565 20.9973H17.4782L13.0585 31.9658C12.7577 32.7112 13.6858 33.3425 14.2725 32.7906L21.8301 25.6777L29.2884 19.3177C29.4053 19.2181 29.4887 19.0851 29.5274 18.9368C29.5662 18.7884 29.5584 18.6318 29.5051 18.488C29.4519 18.3442 29.3557 18.2202 29.2295 18.1325C29.1033 18.0449 28.9533 17.998 28.7995 17.998ZM21.9234 19.4976H26.7627L20.8237 24.5635L15.7317 29.3549L19.2893 20.5264C19.3351 20.4126 19.3521 20.2894 19.339 20.1676C19.3259 20.0457 19.2831 19.9289 19.2142 19.8274C19.1453 19.7258 19.0525 19.6427 18.9439 19.5852C18.8353 19.5277 18.7143 19.4977 18.5913 19.4976H14.8968L18.7658 10.4997H24.6507L21.2314 18.4524C21.1823 18.5665 21.1624 18.6909 21.1735 18.8146C21.1846 18.9382 21.2263 19.0572 21.2949 19.1608C21.3635 19.2644 21.4569 19.3495 21.5665 19.4082C21.6762 19.467 21.7988 19.4977 21.9234 19.4976Z" fill="#4E4BCF"/>
</svg>
