<svg width="42" height="42" viewBox="0 0 42 42" fill="none" xmlns="http://www.w3.org/2000/svg">
<rect width="42" height="42" rx="5" fill="#ECE8F3"/>
<path d="M19.5716 21.5057L17.3516 19.2857L16.1431 20.4943L19.5716 23.9229L26.4288 17.0657L25.2202 15.8572L19.5716 21.5057Z" fill="#7851BD"/>
<path d="M21.2857 33L15.992 30.1774C14.4829 29.3746 13.2208 28.1759 12.3414 26.71C11.4619 25.2442 10.9982 23.5666 11 21.8571V10.7143C11.0005 10.2598 11.1812 9.824 11.5026 9.5026C11.824 9.18121 12.2598 9.00045 12.7143 9H29.8571C30.3117 9.00045 30.7474 9.18121 31.0688 9.5026C31.3902 9.824 31.571 10.2598 31.5714 10.7143V21.8571C31.5732 23.5666 31.1095 25.2442 30.2301 26.71C29.3506 28.1759 28.0886 29.3746 26.5794 30.1774L21.2857 33ZM12.7143 10.7143V21.8571C12.7129 23.2558 13.0924 24.6285 13.8121 25.8278C14.5318 27.0271 15.5645 28.0078 16.7994 28.6646L21.2857 31.0569L25.772 28.6654C27.007 28.0086 28.0399 27.0278 28.7596 25.8283C29.4793 24.6288 29.8587 23.256 29.8571 21.8571V10.7143H12.7143Z" fill="#7851BD"/>
</svg>
