<svg width="19" height="17" viewBox="0 0 19 17" fill="none" xmlns="http://www.w3.org/2000/svg" className="fill-[#233047] group-hover:fill-white">
<path fill-rule="evenodd" clip-rule="evenodd" d="M17.7333 15.0385V11.7692H18.278C18.4695 11.7692 18.6531 11.6907 18.7885 11.5509C18.9239 11.4111 19 11.2215 19 11.0238V5.97615C19 5.77847 18.9239 5.58887 18.7885 5.44909C18.6531 5.3093 18.4695 5.23077 18.278 5.23077H17.7333V1.96154C17.7333 1.44131 17.5332 0.942381 17.1768 0.574521C16.8205 0.206662 16.3372 0 15.8333 0H1.9C1.39609 0 0.912816 0.206662 0.556497 0.574521C0.200178 0.942381 0 1.44131 0 1.96154L0 15.0385C0 15.5587 0.200178 16.0576 0.556497 16.4255C0.912816 16.7933 1.39609 17 1.9 17H15.8333C16.3372 17 16.8205 16.7933 17.1768 16.4255C17.5332 16.0576 17.7333 15.5587 17.7333 15.0385ZM17.7333 6.53846V10.4615H12.0333C11.5294 10.4615 11.0461 10.2549 10.6898 9.88702C10.3335 9.51916 10.1333 9.02023 10.1333 8.5C10.1333 7.97977 10.3335 7.48084 10.6898 7.11298C11.0461 6.74512 11.5294 6.53846 12.0333 6.53846H17.7333Z" />
</svg>
